<mxfile host="app.diagrams.net" agent="Mozilla/5.0 (Windows NT 10.0; Win64; x64; rv:132.0) Gecko/20100101 Firefox/132.0" version="24.8.3">
  <diagram name="Page-1" id="_2QYMQopJqE4-D5JTq7a">
    <mxGraphModel dx="989" dy="520" grid="1" gridSize="10" guides="1" tooltips="1" connect="1" arrows="1" fold="1" page="1" pageScale="1" pageWidth="850" pageHeight="1100" math="0" shadow="0">
      <root>
        <mxCell id="0" />
        <mxCell id="1" parent="0" />
        <mxCell id="Si0mfUpnJsWU2A30i-Ba-1" value="&lt;div&gt;Clients&lt;/div&gt;&lt;div&gt;&lt;br&gt;&lt;/div&gt;" style="shape=umlActor;verticalLabelPosition=bottom;verticalAlign=top;html=1;outlineConnect=0;fillColor=#d5e8d4;strokeColor=#82b366;" vertex="1" parent="1">
          <mxGeometry x="80" y="94" width="30" height="60" as="geometry" />
        </mxCell>
        <mxCell id="Si0mfUpnJsWU2A30i-Ba-13" style="edgeStyle=orthogonalEdgeStyle;rounded=0;orthogonalLoop=1;jettySize=auto;html=1;entryX=0.24;entryY=0.021;entryDx=0;entryDy=0;entryPerimeter=0;exitX=0.875;exitY=0.5;exitDx=0;exitDy=0;exitPerimeter=0;" edge="1" parent="1">
          <mxGeometry relative="1" as="geometry">
            <mxPoint x="431" y="210.00800000000004" as="targetPoint" />
            <mxPoint x="351" y="120" as="sourcePoint" />
          </mxGeometry>
        </mxCell>
        <mxCell id="Si0mfUpnJsWU2A30i-Ba-6" value="Internet" style="ellipse;shape=cloud;whiteSpace=wrap;html=1;fillColor=#e1d5e7;strokeColor=#9673a6;" vertex="1" parent="1">
          <mxGeometry x="260" y="80" width="120" height="80" as="geometry" />
        </mxCell>
        <mxCell id="Si0mfUpnJsWU2A30i-Ba-9" style="edgeStyle=orthogonalEdgeStyle;rounded=0;orthogonalLoop=1;jettySize=auto;html=1;entryX=0.16;entryY=0.55;entryDx=0;entryDy=0;entryPerimeter=0;" edge="1" parent="1" source="Si0mfUpnJsWU2A30i-Ba-1" target="Si0mfUpnJsWU2A30i-Ba-6">
          <mxGeometry relative="1" as="geometry" />
        </mxCell>
        <mxCell id="Si0mfUpnJsWU2A30i-Ba-10" value="&lt;h1 style=&quot;margin-top: 0px;&quot;&gt;Sample 1&lt;br&gt;&lt;/h1&gt;&lt;p&gt;System Design&lt;/p&gt;&lt;p&gt;Agent Design&lt;/p&gt;&lt;p&gt;&lt;br&gt;&lt;/p&gt;" style="text;html=1;whiteSpace=wrap;overflow=hidden;rounded=0;fillColor=#dae8fc;strokeColor=#6c8ebf;" vertex="1" parent="1">
          <mxGeometry x="620" y="34" width="180" height="76" as="geometry" />
        </mxCell>
        <mxCell id="Si0mfUpnJsWU2A30i-Ba-11" value="" style="rounded=1;whiteSpace=wrap;html=1;dashed=1;dashPattern=12 12;" vertex="1" parent="1">
          <mxGeometry x="80" y="283" width="740" height="137" as="geometry" />
        </mxCell>
        <mxCell id="Si0mfUpnJsWU2A30i-Ba-21" value="" style="edgeStyle=orthogonalEdgeStyle;rounded=0;orthogonalLoop=1;jettySize=auto;html=1;" edge="1" parent="1" source="Si0mfUpnJsWU2A30i-Ba-12" target="Si0mfUpnJsWU2A30i-Ba-18">
          <mxGeometry relative="1" as="geometry" />
        </mxCell>
        <mxCell id="Si0mfUpnJsWU2A30i-Ba-12" value="" style="aspect=fixed;sketch=0;html=1;dashed=0;whitespace=wrap;verticalLabelPosition=bottom;verticalAlign=top;fillColor=#2875E2;strokeColor=#ffffff;points=[[0.005,0.63,0],[0.1,0.2,0],[0.9,0.2,0],[0.5,0,0],[0.995,0.63,0],[0.72,0.99,0],[0.5,1,0],[0.28,0.99,0]];shape=mxgraph.kubernetes.icon2;kubernetesLabel=1;prIcon=api" vertex="1" parent="1">
          <mxGeometry x="407" y="208" width="50" height="48" as="geometry" />
        </mxCell>
        <mxCell id="Si0mfUpnJsWU2A30i-Ba-69" style="edgeStyle=orthogonalEdgeStyle;rounded=0;orthogonalLoop=1;jettySize=auto;html=1;" edge="1" parent="1" source="Si0mfUpnJsWU2A30i-Ba-14" target="Si0mfUpnJsWU2A30i-Ba-15">
          <mxGeometry relative="1" as="geometry" />
        </mxCell>
        <mxCell id="Si0mfUpnJsWU2A30i-Ba-14" value="S1" style="sketch=0;points=[[0,0,0],[0.25,0,0],[0.5,0,0],[0.75,0,0],[1,0,0],[0,1,0],[0.25,1,0],[0.5,1,0],[0.75,1,0],[1,1,0],[0,0.25,0],[0,0.5,0],[0,0.75,0],[1,0.25,0],[1,0.5,0],[1,0.75,0]];points=[[0,0,0],[0.25,0,0],[0.5,0,0],[0.75,0,0],[1,0,0],[0,1,0],[0.25,1,0],[0.5,1,0],[0.75,1,0],[1,1,0],[0,0.25,0],[0,0.5,0],[0,0.75,0],[1,0.25,0],[1,0.5,0],[1,0.75,0]];outlineConnect=0;fillColor=#f8cecc;strokeColor=#b85450;dashed=0;verticalLabelPosition=bottom;verticalAlign=top;align=center;html=1;fontSize=12;fontStyle=0;aspect=fixed;shape=mxgraph.aws4.resourceIcon;resIcon=mxgraph.aws4.app_config;" vertex="1" parent="1">
          <mxGeometry x="113" y="300" width="30" height="30" as="geometry" />
        </mxCell>
        <mxCell id="Si0mfUpnJsWU2A30i-Ba-71" style="edgeStyle=orthogonalEdgeStyle;rounded=0;orthogonalLoop=1;jettySize=auto;html=1;" edge="1" parent="1" source="Si0mfUpnJsWU2A30i-Ba-15" target="Si0mfUpnJsWU2A30i-Ba-17">
          <mxGeometry relative="1" as="geometry" />
        </mxCell>
        <mxCell id="Si0mfUpnJsWU2A30i-Ba-15" value="S2" style="sketch=0;points=[[0,0,0],[0.25,0,0],[0.5,0,0],[0.75,0,0],[1,0,0],[0,1,0],[0.25,1,0],[0.5,1,0],[0.75,1,0],[1,1,0],[0,0.25,0],[0,0.5,0],[0,0.75,0],[1,0.25,0],[1,0.5,0],[1,0.75,0]];points=[[0,0,0],[0.25,0,0],[0.5,0,0],[0.75,0,0],[1,0,0],[0,1,0],[0.25,1,0],[0.5,1,0],[0.75,1,0],[1,1,0],[0,0.25,0],[0,0.5,0],[0,0.75,0],[1,0.25,0],[1,0.5,0],[1,0.75,0]];outlineConnect=0;fillColor=#f8cecc;strokeColor=#b85450;dashed=0;verticalLabelPosition=bottom;verticalAlign=top;align=center;html=1;fontSize=12;fontStyle=0;aspect=fixed;shape=mxgraph.aws4.resourceIcon;resIcon=mxgraph.aws4.app_config;" vertex="1" parent="1">
          <mxGeometry x="206" y="300" width="30" height="30" as="geometry" />
        </mxCell>
        <mxCell id="Si0mfUpnJsWU2A30i-Ba-74" style="edgeStyle=orthogonalEdgeStyle;rounded=0;orthogonalLoop=1;jettySize=auto;html=1;" edge="1" parent="1" source="Si0mfUpnJsWU2A30i-Ba-17" target="Si0mfUpnJsWU2A30i-Ba-18">
          <mxGeometry relative="1" as="geometry" />
        </mxCell>
        <mxCell id="Si0mfUpnJsWU2A30i-Ba-17" value="S3" style="sketch=0;points=[[0,0,0],[0.25,0,0],[0.5,0,0],[0.75,0,0],[1,0,0],[0,1,0],[0.25,1,0],[0.5,1,0],[0.75,1,0],[1,1,0],[0,0.25,0],[0,0.5,0],[0,0.75,0],[1,0.25,0],[1,0.5,0],[1,0.75,0]];points=[[0,0,0],[0.25,0,0],[0.5,0,0],[0.75,0,0],[1,0,0],[0,1,0],[0.25,1,0],[0.5,1,0],[0.75,1,0],[1,1,0],[0,0.25,0],[0,0.5,0],[0,0.75,0],[1,0.25,0],[1,0.5,0],[1,0.75,0]];outlineConnect=0;fillColor=#f8cecc;strokeColor=#b85450;dashed=0;verticalLabelPosition=bottom;verticalAlign=top;align=center;html=1;fontSize=12;fontStyle=0;aspect=fixed;shape=mxgraph.aws4.resourceIcon;resIcon=mxgraph.aws4.app_config;" vertex="1" parent="1">
          <mxGeometry x="302" y="300" width="30" height="30" as="geometry" />
        </mxCell>
        <mxCell id="Si0mfUpnJsWU2A30i-Ba-76" style="edgeStyle=orthogonalEdgeStyle;rounded=0;orthogonalLoop=1;jettySize=auto;html=1;" edge="1" parent="1" source="Si0mfUpnJsWU2A30i-Ba-18" target="Si0mfUpnJsWU2A30i-Ba-19">
          <mxGeometry relative="1" as="geometry" />
        </mxCell>
        <mxCell id="Si0mfUpnJsWU2A30i-Ba-18" value="S4" style="sketch=0;points=[[0,0,0],[0.25,0,0],[0.5,0,0],[0.75,0,0],[1,0,0],[0,1,0],[0.25,1,0],[0.5,1,0],[0.75,1,0],[1,1,0],[0,0.25,0],[0,0.5,0],[0,0.75,0],[1,0.25,0],[1,0.5,0],[1,0.75,0]];points=[[0,0,0],[0.25,0,0],[0.5,0,0],[0.75,0,0],[1,0,0],[0,1,0],[0.25,1,0],[0.5,1,0],[0.75,1,0],[1,1,0],[0,0.25,0],[0,0.5,0],[0,0.75,0],[1,0.25,0],[1,0.5,0],[1,0.75,0]];outlineConnect=0;fillColor=#f8cecc;strokeColor=#b85450;dashed=0;verticalLabelPosition=bottom;verticalAlign=top;align=center;html=1;fontSize=12;fontStyle=0;aspect=fixed;shape=mxgraph.aws4.resourceIcon;resIcon=mxgraph.aws4.app_config;" vertex="1" parent="1">
          <mxGeometry x="417" y="300" width="30" height="30" as="geometry" />
        </mxCell>
        <mxCell id="Si0mfUpnJsWU2A30i-Ba-77" style="edgeStyle=orthogonalEdgeStyle;rounded=0;orthogonalLoop=1;jettySize=auto;html=1;" edge="1" parent="1" source="Si0mfUpnJsWU2A30i-Ba-19" target="Si0mfUpnJsWU2A30i-Ba-18">
          <mxGeometry relative="1" as="geometry" />
        </mxCell>
        <mxCell id="Si0mfUpnJsWU2A30i-Ba-78" style="edgeStyle=orthogonalEdgeStyle;rounded=0;orthogonalLoop=1;jettySize=auto;html=1;" edge="1" parent="1" source="Si0mfUpnJsWU2A30i-Ba-19" target="Si0mfUpnJsWU2A30i-Ba-20">
          <mxGeometry relative="1" as="geometry" />
        </mxCell>
        <mxCell id="Si0mfUpnJsWU2A30i-Ba-19" value="S5" style="sketch=0;points=[[0,0,0],[0.25,0,0],[0.5,0,0],[0.75,0,0],[1,0,0],[0,1,0],[0.25,1,0],[0.5,1,0],[0.75,1,0],[1,1,0],[0,0.25,0],[0,0.5,0],[0,0.75,0],[1,0.25,0],[1,0.5,0],[1,0.75,0]];points=[[0,0,0],[0.25,0,0],[0.5,0,0],[0.75,0,0],[1,0,0],[0,1,0],[0.25,1,0],[0.5,1,0],[0.75,1,0],[1,1,0],[0,0.25,0],[0,0.5,0],[0,0.75,0],[1,0.25,0],[1,0.5,0],[1,0.75,0]];outlineConnect=0;fillColor=#f8cecc;strokeColor=#b85450;dashed=0;verticalLabelPosition=bottom;verticalAlign=top;align=center;html=1;fontSize=12;fontStyle=0;aspect=fixed;shape=mxgraph.aws4.resourceIcon;resIcon=mxgraph.aws4.app_config;" vertex="1" parent="1">
          <mxGeometry x="550" y="300" width="30" height="30" as="geometry" />
        </mxCell>
        <mxCell id="Si0mfUpnJsWU2A30i-Ba-80" style="edgeStyle=orthogonalEdgeStyle;rounded=0;orthogonalLoop=1;jettySize=auto;html=1;" edge="1" parent="1" source="Si0mfUpnJsWU2A30i-Ba-20" target="Si0mfUpnJsWU2A30i-Ba-22">
          <mxGeometry relative="1" as="geometry" />
        </mxCell>
        <mxCell id="Si0mfUpnJsWU2A30i-Ba-20" value="S6" style="sketch=0;points=[[0,0,0],[0.25,0,0],[0.5,0,0],[0.75,0,0],[1,0,0],[0,1,0],[0.25,1,0],[0.5,1,0],[0.75,1,0],[1,1,0],[0,0.25,0],[0,0.5,0],[0,0.75,0],[1,0.25,0],[1,0.5,0],[1,0.75,0]];points=[[0,0,0],[0.25,0,0],[0.5,0,0],[0.75,0,0],[1,0,0],[0,1,0],[0.25,1,0],[0.5,1,0],[0.75,1,0],[1,1,0],[0,0.25,0],[0,0.5,0],[0,0.75,0],[1,0.25,0],[1,0.5,0],[1,0.75,0]];outlineConnect=0;fillColor=#f8cecc;strokeColor=#b85450;dashed=0;verticalLabelPosition=bottom;verticalAlign=top;align=center;html=1;fontSize=12;fontStyle=0;aspect=fixed;shape=mxgraph.aws4.resourceIcon;resIcon=mxgraph.aws4.app_config;" vertex="1" parent="1">
          <mxGeometry x="660" y="300" width="30" height="30" as="geometry" />
        </mxCell>
        <mxCell id="Si0mfUpnJsWU2A30i-Ba-81" style="edgeStyle=orthogonalEdgeStyle;rounded=0;orthogonalLoop=1;jettySize=auto;html=1;" edge="1" parent="1" source="Si0mfUpnJsWU2A30i-Ba-22" target="Si0mfUpnJsWU2A30i-Ba-20">
          <mxGeometry relative="1" as="geometry" />
        </mxCell>
        <mxCell id="Si0mfUpnJsWU2A30i-Ba-22" value="S7" style="sketch=0;points=[[0,0,0],[0.25,0,0],[0.5,0,0],[0.75,0,0],[1,0,0],[0,1,0],[0.25,1,0],[0.5,1,0],[0.75,1,0],[1,1,0],[0,0.25,0],[0,0.5,0],[0,0.75,0],[1,0.25,0],[1,0.5,0],[1,0.75,0]];points=[[0,0,0],[0.25,0,0],[0.5,0,0],[0.75,0,0],[1,0,0],[0,1,0],[0.25,1,0],[0.5,1,0],[0.75,1,0],[1,1,0],[0,0.25,0],[0,0.5,0],[0,0.75,0],[1,0.25,0],[1,0.5,0],[1,0.75,0]];outlineConnect=0;fillColor=#f8cecc;strokeColor=#b85450;dashed=0;verticalLabelPosition=bottom;verticalAlign=top;align=center;html=1;fontSize=12;fontStyle=0;aspect=fixed;shape=mxgraph.aws4.resourceIcon;resIcon=mxgraph.aws4.app_config;" vertex="1" parent="1">
          <mxGeometry x="752" y="300" width="30" height="30" as="geometry" />
        </mxCell>
        <mxCell id="Si0mfUpnJsWU2A30i-Ba-27" value="" style="rounded=1;whiteSpace=wrap;html=1;dashed=1;dashPattern=12 12;fillColor=#f5f5f5;fontColor=#333333;strokeColor=#666666;" vertex="1" parent="1">
          <mxGeometry x="184" y="494" width="492" height="66" as="geometry" />
        </mxCell>
        <mxCell id="Si0mfUpnJsWU2A30i-Ba-28" value="db" style="shape=datastore;whiteSpace=wrap;html=1;fillColor=#fff2cc;strokeColor=#d6b656;" vertex="1" parent="1">
          <mxGeometry x="110" y="364" width="33" height="30" as="geometry" />
        </mxCell>
        <mxCell id="Si0mfUpnJsWU2A30i-Ba-29" value="db" style="shape=datastore;whiteSpace=wrap;html=1;fillColor=#fff2cc;strokeColor=#d6b656;" vertex="1" parent="1">
          <mxGeometry x="205" y="364" width="33" height="30" as="geometry" />
        </mxCell>
        <mxCell id="Si0mfUpnJsWU2A30i-Ba-30" value="db" style="shape=datastore;whiteSpace=wrap;html=1;fillColor=#fff2cc;strokeColor=#d6b656;" vertex="1" parent="1">
          <mxGeometry x="303" y="363" width="33" height="30" as="geometry" />
        </mxCell>
        <mxCell id="Si0mfUpnJsWU2A30i-Ba-31" value="db" style="shape=datastore;whiteSpace=wrap;html=1;fillColor=#fff2cc;strokeColor=#d6b656;" vertex="1" parent="1">
          <mxGeometry x="420" y="364" width="33" height="30" as="geometry" />
        </mxCell>
        <mxCell id="Si0mfUpnJsWU2A30i-Ba-33" value="db" style="shape=datastore;whiteSpace=wrap;html=1;fillColor=#fff2cc;strokeColor=#d6b656;" vertex="1" parent="1">
          <mxGeometry x="556" y="362" width="33" height="30" as="geometry" />
        </mxCell>
        <mxCell id="Si0mfUpnJsWU2A30i-Ba-34" value="db" style="shape=datastore;whiteSpace=wrap;html=1;fillColor=#fff2cc;strokeColor=#d6b656;" vertex="1" parent="1">
          <mxGeometry x="664" y="363" width="33" height="30" as="geometry" />
        </mxCell>
        <mxCell id="Si0mfUpnJsWU2A30i-Ba-35" value="db" style="shape=datastore;whiteSpace=wrap;html=1;fillColor=#fff2cc;strokeColor=#d6b656;" vertex="1" parent="1">
          <mxGeometry x="756" y="363" width="33" height="30" as="geometry" />
        </mxCell>
        <mxCell id="Si0mfUpnJsWU2A30i-Ba-46" value="" style="shape=umlActor;verticalLabelPosition=bottom;verticalAlign=top;html=1;outlineConnect=0;fillColor=#f8cecc;strokeColor=#b85450;" vertex="1" parent="1">
          <mxGeometry x="95" y="95" width="30" height="60" as="geometry" />
        </mxCell>
        <mxCell id="Si0mfUpnJsWU2A30i-Ba-48" value="" style="sketch=0;aspect=fixed;pointerEvents=1;shadow=0;dashed=0;html=1;strokeColor=none;labelPosition=center;verticalLabelPosition=bottom;verticalAlign=top;align=center;fillColor=#00188D;shape=mxgraph.azure.queue_generic" vertex="1" parent="1">
          <mxGeometry x="146" y="340" width="50" height="15" as="geometry" />
        </mxCell>
        <mxCell id="Si0mfUpnJsWU2A30i-Ba-49" value="" style="sketch=0;aspect=fixed;pointerEvents=1;shadow=0;dashed=0;html=1;strokeColor=none;labelPosition=center;verticalLabelPosition=bottom;verticalAlign=top;align=center;fillColor=#00188D;shape=mxgraph.azure.queue_generic" vertex="1" parent="1">
          <mxGeometry x="242" y="341" width="50" height="15" as="geometry" />
        </mxCell>
        <mxCell id="Si0mfUpnJsWU2A30i-Ba-50" value="" style="sketch=0;aspect=fixed;pointerEvents=1;shadow=0;dashed=0;html=1;strokeColor=none;labelPosition=center;verticalLabelPosition=bottom;verticalAlign=top;align=center;fillColor=#00188D;shape=mxgraph.azure.queue_generic" vertex="1" parent="1">
          <mxGeometry x="348" y="343" width="50" height="15" as="geometry" />
        </mxCell>
        <mxCell id="Si0mfUpnJsWU2A30i-Ba-51" value="" style="sketch=0;aspect=fixed;pointerEvents=1;shadow=0;dashed=0;html=1;strokeColor=none;labelPosition=center;verticalLabelPosition=bottom;verticalAlign=top;align=center;fillColor=#00188D;shape=mxgraph.azure.queue_generic" vertex="1" parent="1">
          <mxGeometry x="476" y="341" width="50" height="15" as="geometry" />
        </mxCell>
        <mxCell id="Si0mfUpnJsWU2A30i-Ba-52" value="" style="sketch=0;aspect=fixed;pointerEvents=1;shadow=0;dashed=0;html=1;strokeColor=none;labelPosition=center;verticalLabelPosition=bottom;verticalAlign=top;align=center;fillColor=#00188D;shape=mxgraph.azure.queue_generic" vertex="1" parent="1">
          <mxGeometry x="600" y="342" width="50" height="15" as="geometry" />
        </mxCell>
        <mxCell id="Si0mfUpnJsWU2A30i-Ba-53" value="" style="sketch=0;aspect=fixed;pointerEvents=1;shadow=0;dashed=0;html=1;strokeColor=none;labelPosition=center;verticalLabelPosition=bottom;verticalAlign=top;align=center;fillColor=#00188D;shape=mxgraph.azure.queue_generic" vertex="1" parent="1">
          <mxGeometry x="702" y="340" width="50" height="15" as="geometry" />
        </mxCell>
        <mxCell id="Si0mfUpnJsWU2A30i-Ba-54" value="" style="shadow=0;dashed=0;html=1;strokeColor=none;fillColor=#4495D1;labelPosition=center;verticalLabelPosition=bottom;verticalAlign=top;align=center;outlineConnect=0;shape=mxgraph.veeam.2d.agent;pointerEvents=1;" vertex="1" parent="1">
          <mxGeometry x="205" y="504.2" width="44.8" height="44.8" as="geometry" />
        </mxCell>
        <mxCell id="Si0mfUpnJsWU2A30i-Ba-56" value="" style="shadow=0;dashed=0;html=1;strokeColor=#b85450;fillColor=#f8cecc;labelPosition=center;verticalLabelPosition=bottom;verticalAlign=top;align=center;outlineConnect=0;shape=mxgraph.veeam.2d.agent;pointerEvents=1;" vertex="1" parent="1">
          <mxGeometry x="260" y="502.8" width="44.8" height="44.8" as="geometry" />
        </mxCell>
        <mxCell id="Si0mfUpnJsWU2A30i-Ba-57" value="" style="shadow=0;dashed=0;html=1;strokeColor=#d6b656;fillColor=#fff2cc;labelPosition=center;verticalLabelPosition=bottom;verticalAlign=top;align=center;outlineConnect=0;shape=mxgraph.veeam.2d.agent;pointerEvents=1;" vertex="1" parent="1">
          <mxGeometry x="315" y="502.8" width="44.8" height="44.8" as="geometry" />
        </mxCell>
        <mxCell id="Si0mfUpnJsWU2A30i-Ba-58" value="" style="shadow=0;dashed=0;html=1;strokeColor=none;fillColor=#4495D1;labelPosition=center;verticalLabelPosition=bottom;verticalAlign=top;align=center;outlineConnect=0;shape=mxgraph.veeam.2d.agent;pointerEvents=1;" vertex="1" parent="1">
          <mxGeometry x="374.1" y="502.8" width="44.8" height="44.8" as="geometry" />
        </mxCell>
        <mxCell id="Si0mfUpnJsWU2A30i-Ba-59" value="" style="shadow=0;dashed=0;html=1;strokeColor=none;fillColor=#4495D1;labelPosition=center;verticalLabelPosition=bottom;verticalAlign=top;align=center;outlineConnect=0;shape=mxgraph.veeam.2d.agent;pointerEvents=1;" vertex="1" parent="1">
          <mxGeometry x="430.2" y="500.8" width="44.8" height="44.8" as="geometry" />
        </mxCell>
        <mxCell id="Si0mfUpnJsWU2A30i-Ba-60" value="" style="shadow=0;dashed=0;html=1;strokeColor=none;fillColor=#4495D1;labelPosition=center;verticalLabelPosition=bottom;verticalAlign=top;align=center;outlineConnect=0;shape=mxgraph.veeam.2d.agent;pointerEvents=1;" vertex="1" parent="1">
          <mxGeometry x="493" y="501.2" width="44.8" height="44.8" as="geometry" />
        </mxCell>
        <mxCell id="Si0mfUpnJsWU2A30i-Ba-61" value="" style="shadow=0;dashed=0;html=1;strokeColor=none;fillColor=#4495D1;labelPosition=center;verticalLabelPosition=bottom;verticalAlign=top;align=center;outlineConnect=0;shape=mxgraph.veeam.2d.agent;pointerEvents=1;" vertex="1" parent="1">
          <mxGeometry x="550.2" y="500.40000000000003" width="44.8" height="44.8" as="geometry" />
        </mxCell>
        <mxCell id="Si0mfUpnJsWU2A30i-Ba-62" value="" style="shadow=0;dashed=0;html=1;strokeColor=none;fillColor=#4495D1;labelPosition=center;verticalLabelPosition=bottom;verticalAlign=top;align=center;outlineConnect=0;shape=mxgraph.veeam.2d.agent;pointerEvents=1;" vertex="1" parent="1">
          <mxGeometry x="608.2" y="500.40000000000003" width="44.8" height="44.8" as="geometry" />
        </mxCell>
        <mxCell id="Si0mfUpnJsWU2A30i-Ba-65" style="edgeStyle=orthogonalEdgeStyle;rounded=0;orthogonalLoop=1;jettySize=auto;html=1;entryX=0.542;entryY=-0.046;entryDx=0;entryDy=0;entryPerimeter=0;" edge="1" parent="1" source="Si0mfUpnJsWU2A30i-Ba-11" target="Si0mfUpnJsWU2A30i-Ba-27">
          <mxGeometry relative="1" as="geometry" />
        </mxCell>
        <mxCell id="Si0mfUpnJsWU2A30i-Ba-67" value="&lt;h1 style=&quot;margin-top: 0px; font-size: 10px;&quot;&gt;Services&lt;/h1&gt;" style="text;html=1;whiteSpace=wrap;overflow=hidden;rounded=0;fontSize=10;" vertex="1" parent="1">
          <mxGeometry x="380" y="256" width="60" height="30" as="geometry" />
        </mxCell>
        <mxCell id="Si0mfUpnJsWU2A30i-Ba-68" value="Agents" style="text;html=1;whiteSpace=wrap;overflow=hidden;rounded=0;fontStyle=1;fontSize=10;fontColor=#0000FF;" vertex="1" parent="1">
          <mxGeometry x="402.9" y="450" width="110" height="30" as="geometry" />
        </mxCell>
        <mxCell id="Si0mfUpnJsWU2A30i-Ba-70" style="edgeStyle=orthogonalEdgeStyle;rounded=0;orthogonalLoop=1;jettySize=auto;html=1;entryX=1;entryY=0.5;entryDx=0;entryDy=0;entryPerimeter=0;" edge="1" parent="1" source="Si0mfUpnJsWU2A30i-Ba-15" target="Si0mfUpnJsWU2A30i-Ba-14">
          <mxGeometry relative="1" as="geometry" />
        </mxCell>
        <mxCell id="Si0mfUpnJsWU2A30i-Ba-72" style="edgeStyle=orthogonalEdgeStyle;rounded=0;orthogonalLoop=1;jettySize=auto;html=1;entryX=1;entryY=0.5;entryDx=0;entryDy=0;entryPerimeter=0;" edge="1" parent="1" source="Si0mfUpnJsWU2A30i-Ba-17" target="Si0mfUpnJsWU2A30i-Ba-15">
          <mxGeometry relative="1" as="geometry" />
        </mxCell>
        <mxCell id="Si0mfUpnJsWU2A30i-Ba-75" style="edgeStyle=orthogonalEdgeStyle;rounded=0;orthogonalLoop=1;jettySize=auto;html=1;entryX=1;entryY=0.5;entryDx=0;entryDy=0;entryPerimeter=0;" edge="1" parent="1" source="Si0mfUpnJsWU2A30i-Ba-18" target="Si0mfUpnJsWU2A30i-Ba-17">
          <mxGeometry relative="1" as="geometry" />
        </mxCell>
        <mxCell id="Si0mfUpnJsWU2A30i-Ba-79" style="edgeStyle=orthogonalEdgeStyle;rounded=0;orthogonalLoop=1;jettySize=auto;html=1;entryX=1;entryY=0.5;entryDx=0;entryDy=0;entryPerimeter=0;" edge="1" parent="1" source="Si0mfUpnJsWU2A30i-Ba-20" target="Si0mfUpnJsWU2A30i-Ba-19">
          <mxGeometry relative="1" as="geometry" />
        </mxCell>
      </root>
    </mxGraphModel>
  </diagram>
</mxfile>
